<svg width="368" height="76" viewBox="0 0 368 76" fill="none" xmlns="http://www.w3.org/2000/svg">
<path d="M22.1662 32.7298C21.3908 33.0201 20.6622 33.4098 19.9805 33.899C18.3268 35.0798 17.0357 36.8065 16.1069 39.0788C15.1781 41.3512 14.7136 44.1025 14.7136 47.3329C14.7136 50.6078 15.1666 53.3926 16.0728 55.6873C17.0016 57.9819 18.3041 59.7307 19.9805 60.9337C20.6622 61.4229 21.3908 61.8124 22.1662 62.1027V73.8272C18.295 73.4365 14.8706 72.3806 11.8932 70.6581C8.06471 68.408 5.11974 65.2891 3.05827 61.3013C1.01945 57.3135 1.09722e-05 52.7242 0 47.5334C0 42.2758 1.03066 37.664 3.09214 33.6984C5.17627 29.7107 8.1327 26.603 11.9611 24.3752C14.9276 22.6317 18.3293 21.5642 22.1662 21.1716V32.7298ZM49 54.1834C48.7735 58.1044 47.686 61.5575 45.7378 64.5428C43.8122 67.5058 41.1504 69.8228 37.7523 71.4937C35.3423 72.6787 32.6188 73.4429 29.5821 73.7875V62.0648C29.8304 61.9659 30.0735 61.8565 30.3107 61.7358C31.6473 61.0674 32.746 60.0982 33.6068 58.8284C34.4903 57.5362 35.0679 55.9879 35.3398 54.1834H49ZM25.8592 32.0946C27.2382 32.0946 28.479 32.309 29.5821 32.7372V62.0648C28.4551 62.5135 27.2143 62.7382 25.8592 62.7382C24.5284 62.7382 23.2975 62.5262 22.1662 62.1027V32.7298C23.2975 32.3063 24.5285 32.0946 25.8592 32.0946ZM29.5821 21.2219C32.5254 21.5643 35.1922 22.303 37.5825 23.4394C41.0032 25.0657 43.7102 27.3493 45.7037 30.29C47.6972 33.2307 48.7961 36.6838 49 40.6494H35.3398C34.9547 38.0874 33.9352 36.0266 32.2815 34.4672C31.4991 33.7084 30.5991 33.132 29.5821 32.7372V21.2219Z" fill="black"/>
<path d="M342.804 21.6363V32.5454H311.27V21.6363H342.804ZM318.429 9.09088H332.952V57.9091C332.952 59.25 333.156 60.2954 333.565 61.0454C333.974 61.7727 334.543 62.2841 335.27 62.5795C336.02 62.875 336.884 63.0227 337.861 63.0227C338.543 63.0227 339.224 62.9659 339.906 62.8522C340.588 62.7159 341.111 62.6136 341.474 62.5454L343.759 73.3522C343.031 73.5795 342.009 73.8409 340.69 74.1363C339.372 74.4545 337.77 74.6477 335.884 74.7159C332.384 74.8522 329.315 74.3863 326.679 73.3182C324.065 72.25 322.031 70.5909 320.577 68.3409C319.122 66.0909 318.406 63.25 318.429 59.8182V9.09088Z" fill="black"/>
<path d="M288.795 74V21.6364H303.318V74H288.795ZM296.091 14.8864C293.932 14.8864 292.08 14.1705 290.534 12.7386C289.011 11.2841 288.25 9.54545 288.25 7.52272C288.25 5.52272 289.011 3.80681 290.534 2.375C292.08 0.92045 293.932 0.193176 296.091 0.193176C298.25 0.193176 300.091 0.92045 301.614 2.375C303.159 3.80681 303.932 5.52272 303.932 7.52272C303.932 9.54545 303.159 11.2841 301.614 12.7386C300.091 14.1705 298.25 14.8864 296.091 14.8864Z" fill="black"/>
<path d="M201.233 74V21.6363H215.074V30.875H215.688C216.778 27.8068 218.597 25.3863 221.142 23.6136C223.688 21.8409 226.733 20.9545 230.278 20.9545C233.869 20.9545 236.926 21.8523 239.449 23.6477C241.972 25.4204 243.653 27.8295 244.494 30.875H245.04C246.108 27.875 248.04 25.4773 250.835 23.6818C253.653 21.8636 256.983 20.9545 260.824 20.9545C265.71 20.9545 269.676 22.5113 272.722 25.625C275.79 28.7159 277.324 33.1023 277.324 38.7841V74H262.835V41.6477C262.835 38.7386 262.063 36.5568 260.517 35.1023C258.972 33.6477 257.04 32.9204 254.722 32.9204C252.085 32.9204 250.028 33.7613 248.551 35.4432C247.074 37.1023 246.335 39.2954 246.335 42.0227V74H232.256V41.3409C232.256 38.7727 231.517 36.7273 230.04 35.2045C228.585 33.6818 226.665 32.9204 224.278 32.9204C222.665 32.9204 221.21 33.3295 219.915 34.1477C218.642 34.9432 217.631 36.0682 216.881 37.5227C216.131 38.9545 215.756 40.6363 215.756 42.5682V74H201.233Z" fill="black"/>
<path d="M113.67 74V21.6363H127.511V30.875H128.125C129.216 27.8068 131.034 25.3863 133.58 23.6136C136.125 21.8409 139.17 20.9545 142.716 20.9545C146.307 20.9545 149.364 21.8523 151.886 23.6477C154.409 25.4204 156.091 27.8295 156.932 30.875H157.477C158.545 27.875 160.477 25.4773 163.273 23.6818C166.091 21.8636 169.42 20.9545 173.261 20.9545C178.148 20.9545 182.114 22.5113 185.159 25.625C188.227 28.7159 189.761 33.1023 189.761 38.7841V74H175.273V41.6477C175.273 38.7386 174.5 36.5568 172.955 35.1023C171.409 33.6477 169.477 32.9204 167.159 32.9204C164.523 32.9204 162.466 33.7613 160.989 35.4432C159.511 37.1023 158.773 39.2954 158.773 42.0227V74H144.693V41.3409C144.693 38.7727 143.955 36.7273 142.477 35.2045C141.023 33.6818 139.102 32.9204 136.716 32.9204C135.102 32.9204 133.648 33.3295 132.352 34.1477C131.08 34.9432 130.068 36.0682 129.318 37.5227C128.568 38.9545 128.193 40.6363 128.193 42.5682V74H113.67Z" fill="black"/>
<path d="M78.4546 75.0227C73.1591 75.0227 68.5796 73.8977 64.7159 71.6477C60.875 69.375 57.9091 66.2159 55.8182 62.1704C53.7273 58.1023 52.6818 53.3863 52.6818 48.0227C52.6818 42.6136 53.7273 37.8863 55.8182 33.8409C57.9091 29.7727 60.875 26.6136 64.7159 24.3636C68.5796 22.0909 73.1591 20.9545 78.4546 20.9545C83.75 20.9545 88.3182 22.0909 92.1591 24.3636C96.0227 26.6136 99 29.7727 101.091 33.8409C103.182 37.8863 104.227 42.6136 104.227 48.0227C104.227 53.3863 103.182 58.1023 101.091 62.1704C99 66.2159 96.0227 69.375 92.1591 71.6477C88.3182 73.8977 83.75 75.0227 78.4546 75.0227ZM78.5227 63.7727C80.9318 63.7727 82.9432 63.0909 84.5568 61.7273C86.1705 60.3409 87.3864 58.4545 88.2045 56.0682C89.0455 53.6818 89.4659 50.9659 89.4659 47.9204C89.4659 44.875 89.0455 42.1591 88.2045 39.7727C87.3864 37.3863 86.1705 35.5 84.5568 34.1136C82.9432 32.7273 80.9318 32.0341 78.5227 32.0341C76.0909 32.0341 74.0455 32.7273 72.3864 34.1136C70.75 35.5 69.5114 37.3863 68.6705 39.7727C67.8523 42.1591 67.4432 44.875 67.4432 47.9204C67.4432 50.9659 67.8523 53.6818 68.6705 56.0682C69.5114 58.4545 70.75 60.3409 72.3864 61.7273C74.0455 63.0909 76.0909 63.7727 78.5227 63.7727Z" fill="black"/>
<circle cx="361" cy="67" r="7" fill="#7B7B7B"/>
</svg>
